<svg xmlns="http://www.w3.org/2000/svg" width="605" height="421"><path d="M 251.765 45.916 C 271.277 25.705 298.441 13.169 328.484 13.169 C 368.421 13.169 403.264 35.308 421.82 68.175 C 437.945 61.013 455.793 57.028 474.572 57.028 C 546.603 57.028 605 115.592 605 187.829 C 605 260.074 546.603 318.637 474.572 318.637 C 465.944 318.642 457.338 317.79 448.881 316.092 C 432.541 345.069 401.403 364.648 365.663 364.648 C 350.702 364.648 336.551 361.212 323.951 355.103 C 307.387 393.839 268.794 420.999 223.815 420.999 C 176.976 420.999 137.056 391.534 121.733 350.21 C 115.037 351.624 108.099 352.361 100.98 352.361 C 45.211 352.362 0 306.951 0 250.924 C 0 213.379 20.313 180.597 50.494 163.058 C 44.281 148.845 40.824 133.156 40.824 116.662 C 40.824 52.23 93.439 0 158.334 0 C 196.435 0 230.297 18.01 251.765 45.916" fill="rgb(0,161,224)"></path><path d="M 128.302 144.941 L 176.206 144.941 L 176.206 160.206 L 146.433 160.206 L 146.433 181.418 L 176.206 181.418 L 176.206 196.345 L 146.433 196.345 L 146.433 223.505 L 128.302 223.505 Z M 186.055 169.407 L 203.181 169.407 L 203.181 180.743 C 204.075 176.848 205.905 173.858 208.665 171.764 C 211.495 169.592 214.637 168.51 218.067 168.51 C 219.859 168.51 221.353 168.663 222.543 168.959 L 222.543 184.897 C 220.834 184.691 219.116 184.579 217.395 184.56 C 212.694 184.56 209.153 186.091 206.762 189.16 C 204.379 192.153 203.181 196.641 203.181 202.63 L 203.181 223.505 L 186.063 223.505 L 186.063 169.407 Z M 249.577 224.965 C 244.356 224.965 239.801 223.728 235.922 221.259 C 232.115 218.791 229.087 215.287 227.192 211.157 C 225.178 206.822 224.164 201.915 224.164 196.456 C 224.164 191.068 225.216 186.202 227.303 181.866 C 229.261 177.678 232.367 174.136 236.258 171.653 C 240.208 169.185 244.725 167.948 249.802 167.948 C 253.606 167.948 257.006 168.774 259.988 170.419 C 262.97 172.069 265.209 174.314 266.703 177.152 L 266.703 169.407 L 283.715 169.407 L 283.715 223.505 L 266.703 223.505 L 266.703 215.871 C 265.209 218.565 262.897 220.77 259.763 222.493 C 256.628 224.159 253.125 225.009 249.577 224.965 Z M 254.503 210.709 C 258.605 210.709 261.777 209.363 264.016 206.669 C 266.256 203.975 267.375 200.569 267.375 196.456 C 267.375 192.416 266.256 189.048 264.016 186.354 C 261.777 183.66 258.605 182.315 254.503 182.315 C 250.618 182.315 247.49 183.622 245.101 186.243 C 242.789 188.863 241.631 192.264 241.631 196.456 C 241.631 200.648 242.789 204.087 245.101 206.781 C 247.49 209.401 250.624 210.709 254.503 210.709 Z M 295.692 169.407 L 312.818 169.407 L 312.818 177.264 C 314.016 174.491 315.952 172.246 318.636 170.53 C 321.401 168.815 324.608 167.948 328.263 167.948 C 336.77 167.948 342.406 171.275 345.163 177.938 C 346.68 174.919 349.057 172.419 351.992 170.756 C 355.131 168.862 358.737 167.889 362.4 167.948 C 375.161 167.948 381.54 175.277 381.54 189.945 L 381.54 223.505 L 364.303 223.505 L 364.303 193.088 C 364.303 189.426 363.631 186.732 362.289 185.009 C 360.944 183.291 358.93 182.426 356.243 182.426 C 353.334 182.426 351.095 183.437 349.528 185.457 C 347.961 187.404 347.177 190.804 347.177 195.67 L 347.177 223.505 L 329.941 223.505 L 329.941 192.976 C 329.941 189.312 329.271 186.653 327.926 185.009 C 326.663 183.291 324.681 182.426 322 182.426 C 319.013 182.426 316.735 183.437 315.168 185.457 C 313.601 187.404 312.818 190.804 312.818 195.67 L 312.818 223.505 L 295.698 223.505 L 295.698 169.407 Z M 445.873 193.651 C 445.873 195.967 445.721 198.476 445.417 201.17 L 405.579 201.17 C 405.73 204.688 406.921 207.376 409.16 209.252 C 411.399 211.119 414.427 212.057 418.226 212.057 C 423.526 212.057 426.885 210.445 428.3 207.229 L 445.089 207.229 C 444.265 212.544 441.356 216.842 436.357 220.137 C 431.434 223.352 425.388 224.965 418.226 224.965 C 408.976 224.965 401.699 222.455 396.399 217.443 C 391.178 212.427 388.564 205.435 388.564 196.456 C 388.564 190.62 389.757 185.569 392.145 181.303 C 394.453 177.044 398.008 173.597 402.331 171.427 C 406.736 169.111 411.847 167.948 417.673 167.948 C 423.19 167.948 428.075 169.032 432.328 171.204 C 436.655 173.376 439.979 176.405 442.289 180.295 C 444.68 184.19 445.873 188.641 445.873 193.651 Z M 428.964 190.508 C 428.891 186.917 427.885 184.182 425.941 182.315 C 424.006 180.447 421.202 179.509 417.548 179.509 C 413.893 179.509 410.984 180.518 408.818 182.54 C 406.731 184.487 405.649 187.14 405.57 190.508 Z M 453.423 169.407 L 470.549 169.407 L 470.549 180.743 C 471.443 176.848 473.273 173.858 476.033 171.764 C 478.712 169.649 482.025 168.502 485.435 168.51 C 487.224 168.51 488.721 168.663 489.911 168.959 L 489.911 184.897 C 488.202 184.691 486.484 184.579 484.763 184.56 C 480.062 184.56 476.521 186.091 474.13 189.16 C 471.739 192.153 470.549 196.641 470.549 202.63 L 470.549 223.505 L 453.423 223.505 Z" fill="rgb(255,255,255)"></path></svg>